<?xml version="1.0" standalone="no"?>
<!DOCTYPE svg PUBLIC "-//W3C//DTD SVG 20010904//EN"
 "http://www.w3.org/TR/2001/REC-SVG-20010904/DTD/svg10.dtd">
<svg version="1.0" xmlns="http://www.w3.org/2000/svg"
 width="229.000000pt" height="229.000000pt" viewBox="0 0 229.000000 229.000000"
 preserveAspectRatio="xMidYMid meet">
<metadata>
Created by potrace 1.11, written by Peter Selinger 2001-2013
</metadata>
<g transform="translate(0.000000,229.000000) scale(0.100000,-0.100000)"
fill="#000000" stroke="none">
<path d="M1108 2124 c-3 -2 -27 -6 -54 -9 -27 -3 -57 -8 -66 -11 -10 -3 -28
-7 -41 -10 -50 -8 -147 -43 -208 -74 -249 -126 -432 -348 -511 -620 -79 -273
-17 -591 162 -829 230 -304 597 -448 969 -380 211 38 380 125 528 271 77 75
172 213 180 261 7 43 -17 69 -60 65 -27 -3 -40 -16 -91 -92 -129 -192 -300
-320 -492 -370 -190 -49 -404 -36 -574 34 -92 38 -128 60 -214 129 -244 197
-366 533 -301 830 75 340 332 590 685 666 66 14 284 15 345 1 169 -38 335
-132 453 -254 28 -29 102 -127 102 -135 0 -8 -84 -47 -101 -47 -8 0 -42 31
-74 68 -198 227 -477 314 -755 236 -181 -51 -302 -189 -307 -350 -6 -208 179
-339 564 -400 112 -18 252 -83 302 -140 67 -77 85 -170 47 -243 -38 -72 -153
-153 -256 -181 -95 -26 -242 -17 -345 22 -108 40 -182 84 -303 180 -89 71
-122 75 -151 20 -19 -36 -7 -54 86 -128 175 -138 297 -197 473 -229 44 -8 174
-8 220 0 233 40 425 222 423 401 -1 103 -47 205 -122 272 -64 57 -228 122
-370 147 -120 21 -127 22 -189 41 -204 59 -293 179 -232 312 85 188 412 246
624 112 26 -17 49 -30 52 -30 11 0 89 -63 126 -101 20 -21 51 -60 69 -86 59
-88 60 -88 232 -12 129 58 137 63 137 96 0 87 -212 332 -370 427 -85 52 -241
109 -325 121 -27 3 -55 11 -61 16 -8 7 -14 6 -19 -1 -3 -6 -12 -7 -18 -3 -13
8 -162 14 -169 7z"/>
</g>
</svg>
