<?xml version="1.0" encoding="UTF-8"?>
<svg width="1000px" height="388px" viewBox="0 0 1000 388" version="1.1" xmlns="http://www.w3.org/2000/svg" xmlns:xlink="http://www.w3.org/1999/xlink">
    <!-- Generator: Sketch 49.1 (51147) - http://www.bohemiancoding.com/sketch -->
    <title>easter</title>
    <desc>Created with Sketch.</desc>
    <defs></defs>
    <g id="Page-1" stroke="none" stroke-width="1" fill="none" fill-rule="evenodd">
        <g id="v" fill="#FFFFFF" fill-rule="nonzero">
            <g id="easter">
                <path d="M190.6,86 C189.7,92.1 185.8,100.2 178.9,110.1 C172,120 163.5,131.2 153.4,143.6 C162,140.8 169.6,138.6 176.4,136.9 C181.7,135.5 187.1,134.5 192.5,133.9 C199,133.7 205.6,134.7 211.8,136.9 C218,138.8 223.8,141.5 229.3,144.9 C233.9,148 236.3,150.9 236.7,153.6 C237,156.3 233.4,158 225.7,158.7 C209.7,160.9 193.8,163.9 178.1,167.7 C158.9,172.1 139.1,177.4 118.5,183.6 C107.8,195.6 97.4,207.5 87.4,219.3 C77.4,231.1 68.9,242 61.9,252.2 C55.8,260.6 50.7,269.6 46.7,279.1 C43.6,286.9 43.8,292.8 47.2,296.8 C52.1,302.6 59.9,305.3 70.4,304.9 C82.8,304.1 95,301.6 106.8,297.7 C121.6,293 135.9,287.1 149.8,280.2 C164.8,272.8 179.1,265 192.6,256.7 C205.1,249.1 217.2,240.7 228.7,231.6 C237.1,225.3 244.8,217.9 251.5,209.7 C254.9,205.1 257.9,203.3 260.7,204.4 C263.5,205.5 265.2,208.4 266,213.1 C266.7,219.2 266.3,225.3 264.8,231.3 C262.9,239.6 259.3,247.4 254.2,254.3 C249.6,260.3 244,265.5 237.6,269.5 C228.6,275.6 219.4,281.3 209.8,286.4 C199.2,292.1 187.7,297.5 175.3,302.7 C162.9,307.9 150.8,312.6 139.2,316.7 C127.5,320.8 116.7,324.3 106.8,327.1 C99,329.5 90.9,331 82.7,331.7 C74.3,332.4 65.9,330.9 58.3,327.3 C50.7,323.8 44,318.8 38.5,312.6 C32.9,306.3 28.8,298.8 26.5,290.8 C24,282.4 23.5,273.6 25.1,265 C27.6,255.2 31.6,245.9 37.1,237.4 C44.5,225.3 52.4,213.6 61,202.4 C51.2,205.8 42.2,209.3 34.1,212.8 C27.2,215.7 20.6,219 14.1,222.7 C9.2,225.5 6,226.3 4.5,225.1 C3,224 2.7,222.1 3.6,219.3 C5,215.8 6.9,212.5 9.4,209.7 C12.3,206 15.8,202.9 19.8,200.5 C28.8,194.8 38.2,189.8 47.8,185.5 C60,179.9 73.5,174 88.2,167.8 L113,137.5 C121.3,127.4 129,117.7 136,108.6 C143.1,99.5 149.2,91.1 154.4,83.5 C158.7,77.4 162.4,71 165.5,64.2 C137.6,73.1 110.7,82.8 85,93.4 C60,103.6 35.6,115.1 11.8,127.8 C4.7,131.5 1.1,131.3 0.8,127.3 C0.5,123.3 2.3,117.9 6.3,111 C10.9,103.2 16.4,95.9 22.6,89.3 C28.6,82.4 35.9,76.7 44,72.4 C57.8,66.1 71.9,60.7 86.3,56.1 C103.5,50.4 122.1,44.9 142.2,39.6 C162.3,34.3 183.2,29.2 205,24.4 C226.8,19.6 247.8,15.4 268.2,12 C288.6,8.6 307.6,5.7 325.2,3.5 C340,1.7 355,0.6 370,0.5 C376.3,0.4 382.7,1.4 388.6,3.5 C393.1,4.9 397.2,7.3 400.6,10.4 C403.2,13 404.1,15.4 403.4,17.6 C402.7,19.8 399.8,21 394.9,21.3 C358.7,23.8 322.7,28.3 287,34.9 C251.2,41.4 216.1,49.6 181.8,59.4 C184.4,63.6 186.6,68 188.5,72.5 C190.4,76.7 191.1,81.4 190.6,86 Z" id="Shape"></path>
                <path d="M451.8,153.7 C443.5,166.5 436,178.1 429.2,188.4 C422.4,198.7 416.9,207.5 412.7,214.6 C409.3,220.1 406.3,225.8 404,231.8 C402.5,236.1 402.6,238.7 404.5,239.6 C406.4,240.5 411,238.8 417.6,233.4 C424.2,228 431.6,221.4 439.9,213.6 C448.2,205.9 456.3,197.7 464.3,189.5 C472.3,181.3 478.7,174.6 483.6,169.7 C487.3,165.9 491.5,162.7 496,160.1 C499.1,158.1 502.7,156.7 506.4,156.2 C509,156.1 510.2,157.1 510.1,159.2 C509.9,161.3 507.7,164.9 502.9,169.8 C496.3,176.5 488.2,185.5 478.7,196.8 C469.2,208.1 459.8,219.4 450.4,230.5 C441,241.7 432.5,251.5 424.9,259.9 C417.2,268.3 411.7,273 408.3,273.9 C404.2,275.4 399.7,275.4 395.7,273.9 C391.9,272.3 388.5,269.9 385.8,266.7 C383,263.4 380.9,259.4 379.8,255.2 C378.6,250.8 378.3,246.2 378.9,241.6 C379.4,237.1 380.7,232.6 382.6,228.5 C384.8,223.4 387.2,218.4 389.9,213.3 C392.7,208.2 395.3,203.5 397.7,199 C400.2,194.5 402.2,191.1 403.7,188.6 C401.3,192.4 398.7,196 395.9,199.4 C391.9,204.5 387.1,210.2 381.5,216.7 C375.9,223.2 369.6,229.9 362.9,236.9 C356.5,243.6 349.7,250 342.7,256 C336.6,261.2 330.2,266 323.4,270.3 C317.3,274.1 312.1,276.1 307.8,276.1 C302.6,276 297.6,273.9 293.8,270.3 C289.2,266.3 285.5,261.5 282.7,256 C279.8,250.3 277.7,244.2 276.5,237.8 C275.3,232.2 275.4,226.3 277,220.8 C278.6,215.3 282.7,207.8 289.2,198.3 C295.7,188.8 303.6,178.6 312.9,167.7 C322.1,156.8 332.2,145.9 343,134.8 C353.8,123.7 364.5,113.9 375,105.1 C384,97.4 393.7,90.6 404,84.8 C413.1,80 420.3,78.1 425.8,79.3 C428.7,80.5 431.2,82.4 433.2,84.8 C436.2,88.2 438.7,92.1 440.4,96.3 C442.5,101.3 443.8,106.6 444.3,111.9 C444.9,117.7 444.1,123.5 441.9,128.9 C446.4,131.5 449.9,135.5 452.1,140.2 C454.3,145.6 454.3,150 451.8,153.7 Z M426.6,113.2 C422.9,111.3 417.1,112.8 409.1,117.6 C399.6,123.5 390.7,130.3 382.4,137.8 C372.5,146.6 362.4,156.4 352,167.2 C342.3,177.2 333.2,187.7 324.6,198.7 C317.8,207.2 311.7,216.3 306.4,225.8 C302.1,233.8 301.2,239.2 303.6,241.9 C305.8,244.6 310.8,243.8 318.6,239.4 C328.6,233.3 337.9,226.3 346.4,218.4 C357.1,208.9 368.7,197.7 381.1,184.7 C393.5,171.7 405.6,158 417.2,143.5 C420.6,137 423.6,130.4 426.2,123.5 C428.3,117.9 428.4,114.4 426.6,113.2 Z" id="Shape"></path>
                <path d="M529.1,235.1 C524,247.2 515.9,257.8 505.6,265.9 C496.4,273.4 485.7,279 474.3,282.2 C464.8,285.1 454.7,285.3 445.1,282.9 C432.3,279.9 424.4,267.1 427.4,254.4 C428.2,250 429.6,245.8 431.5,241.8 C433.1,238.3 435.3,235.1 437.9,232.4 C440.3,230 442.5,229.2 444.4,230 C446.2,230.9 447.6,232.6 448.1,234.6 C448.7,236.7 449.5,239.1 450.5,241.5 C451.7,244.4 453.3,247 455.3,249.3 C458.4,252.6 462.3,255.1 466.6,256.7 C473.7,259.8 480.7,258.7 487.8,253.5 C494.8,248.4 500,241.4 503,233.3 C505.2,227.3 505.3,220.8 503.5,214.7 C501.5,207.8 499,201.1 496.1,194.5 C493,187.6 490.1,180.9 487.4,174.5 C484.9,169 483.4,163.1 483.3,157 C483.6,149.9 485.7,143 489.5,137 C493.9,129.5 499.1,122.5 505.1,116.3 C511.5,109.6 518.5,103.4 526,97.9 C533.1,92.6 540.7,88 548.8,84.3 C555.3,81.2 562.3,79.3 569.5,78.8 C575,78.2 580.5,80.1 584.5,83.9 C587.3,87 588.5,91.3 587.7,95.4 C586.9,100.4 585.3,105.2 582.9,109.7 C580.1,114.9 576.6,119.8 572.5,124.1 C568.6,128.6 564.1,132.5 559.2,135.8 C552.2,140.6 544.9,144.8 537.1,148.2 C528.9,152.1 520.2,155.1 511.3,156.9 C513,162.4 515.6,167.5 519.1,172.1 C522.9,177.2 526.2,182.7 528.9,188.5 C531.9,194.9 533.8,201.7 534.4,208.7 C535.2,216.2 533.4,225 529.1,235.1 Z M545.7,115 C552.4,109.2 555.4,105.5 554.7,104 C553.9,102.5 551.3,102.8 546.6,105.2 C540.7,108.4 535.2,112.3 530.3,116.9 C523.8,122.7 518.3,129.5 514,137.1 C513.4,137.7 512.9,138.6 512.8,139.5 C512.7,140.3 512.5,141.1 512.1,141.9 C515.5,139.5 519.9,136.2 525.5,132 C531.1,127.9 537.8,122.2 545.7,115 Z" id="Shape"></path>
                <path d="M593.9,60.7 C592.3,60.3 591.1,59.1 590.7,57.5 C590.4,55.8 590.9,54.1 591.9,52.7 C593.1,50.9 594.9,49.5 597,48.8 C599.6,47.9 602.5,47.9 605.1,48.8 C612.4,50.7 620,51.8 627.5,52.3 C637,53.1 647.6,53.6 659.2,53.9 C667.9,43.2 677.1,32.9 686.8,23.1 C693.8,15.8 701.7,9.3 710.3,3.8 C713.9,1.9 718.2,1.7 722,3.1 C726.7,4.6 730.9,7.4 734,11.1 C737.8,15.6 740.4,21 741.6,26.7 C743.1,34.1 742.6,41.7 740.2,48.8 C754,47 767.4,44.6 780.5,41.6 C792.6,38.9 804.6,35.3 816.1,30.8 C821.9,28.7 825.5,28.4 826.9,30.3 C828.3,32.2 827.8,35.1 825.5,39 C822.5,43.8 818.7,48.1 814.2,51.6 C808.7,56.2 802.5,59.9 795.8,62.4 C784.3,66.5 772.4,69.2 760.4,70.5 C745.7,72.2 731,73.2 716.2,73.5 L715.3,74 C714.7,74.3 711.5,76.8 705.9,81.6 C700.2,86.3 693.2,92.3 684.8,99.5 C676.4,106.7 667.2,114.7 657.4,123.4 C647.6,132.1 638.1,140.6 628.9,148.9 C622.2,160 616.1,170.7 610.7,181.1 C605.8,190.3 601.7,200 598.3,209.8 C595.7,217.1 594.1,224.8 593.5,232.6 C593.2,239 594.7,243.8 598.1,246.9 C600.3,249 605.2,248 613.1,243.9 C622.7,238.6 631.9,232.7 640.7,226.2 C651.3,218.5 662.5,209.7 674.4,199.5 C686.3,189.4 697.1,179.4 706.8,169.6 C710.9,165.4 715.5,161.7 720.6,158.8 C724.9,156.4 728.1,155.5 730.2,155.8 C732.3,156.1 733.2,157.5 732.7,159.9 C732.2,162.3 730,165.6 726,169.5 C723.2,172.3 718.9,176.9 713.1,183.3 C707.3,189.7 700.7,197 693.3,205 C685.9,213 678,221.3 669.4,229.8 C660.8,238.4 652.5,246.2 644.6,253.3 C637.5,259.7 630,265.5 622.1,270.8 C615,275.4 609.2,277.7 604.6,277.7 C599.3,277.4 594.2,275.2 590.3,271.5 C584.9,266.7 580.7,260.8 577.9,254.2 C574.3,246 572,237.2 571.2,228.2 C570.2,217.3 571.2,206.3 574.2,195.8 C576.6,186.7 579.9,177.8 584.1,169.3 C588.9,159.4 594.5,148.8 601,137.6 C607.5,126.4 614.5,115 622.4,103.3 C630.2,91.6 638.3,80.4 646.5,69.6 C636.7,68.4 627.4,67.1 618.7,65.7 C610.2,64.7 602,63 593.9,60.7 Z M681.3,73.2 C671.2,85.8 661.3,99.3 651.7,113.7 L691.7,73.7 C690,73.4 688.3,73.2 686.6,73.2 L681.3,73.2 Z M713.1,51.5 C718,46.5 722.4,41 726.2,35.2 C728.2,31.7 728.7,29.2 727.8,27.6 C726.9,26 723.3,27.2 718.2,32 C713,36.8 706.4,43.6 698.4,52.5 C700.8,52.5 703.2,52.5 705.8,52.3 C708.4,52.1 710.5,52 713,51.7 L713.1,51.5 Z" id="Shape"></path>
                <path d="M706.5,247.5 C709.3,250.6 714.1,251.4 720.9,249.9 C729.1,248.1 737,245.4 744.6,241.9 C754.5,237.4 764.1,232.3 773.3,226.7 C783.6,220.6 793.5,214.1 803.2,207.4 C812.9,200.7 821.8,194 830.1,187.4 C837.2,181.9 843.9,176 850.3,169.7 C853.9,166 858,162.8 862.5,160.3 C865.3,158.6 868.5,157.7 871.7,157.6 C874,157.7 875.1,158.9 875.1,161 C875.1,163.1 873.2,166.1 869.6,169.7 C857.6,181.7 844.8,193.9 831.1,206.5 C817.4,219.1 803.9,230.6 790.8,241.1 C778.8,250.6 766.1,259.2 752.7,266.6 C740.6,273.2 730.1,276.5 721.2,276.5 C716.3,276.4 711.5,275.4 706.9,273.5 C701.6,271.4 696.7,268.3 692.6,264.3 C688,259.7 684.3,254.2 681.8,248.2 C678.7,240.7 677.2,232.6 677.4,224.5 C677.4,218.4 679.9,210.7 685,201.5 C690.7,191.4 697.3,181.7 704.6,172.6 C713,162 721.9,151.9 731.3,142.2 C740.5,132.6 750.2,123.5 760.4,114.9 C769,107.6 778.1,100.9 787.8,95.1 C796.4,90 803.3,87.5 808.5,87.5 C811.3,87.7 814,88.3 816.6,89.3 C820.4,90.7 823.9,92.7 827,95.3 C830.6,98.3 833.5,102.1 835.5,106.3 C837.9,111.8 838.6,117.9 837.6,123.8 C836.3,131.9 833.1,139.6 828.4,146.4 C822.9,154.6 816.7,162.3 809.8,169.4 C802.9,176.5 795.5,183.2 787.7,189.4 C781.7,194.3 775.4,198.7 768.6,202.5 C759.7,207.7 751.2,209.3 743.1,207.3 C735.7,205.7 728.9,201.9 723.5,196.5 C716.5,206.1 710.6,216.6 706,227.6 C702.3,236.9 702.5,243.5 706.5,247.5 Z M807.2,121.5 C804.7,119.9 800.7,120.7 795,123.9 C788.2,127.8 781.8,132.4 775.9,137.7 C768.9,143.8 761.4,151 753.6,159.4 C745.9,167.6 738.6,176.2 731.8,185.1 C736.8,187.3 742.6,187.4 747.7,185.3 C754.2,183 760.3,179.9 765.9,175.9 C772.2,171.4 778.1,166.4 783.6,160.9 C788.9,155.6 793.8,150 798.3,144 C801.8,139.6 804.7,134.7 807,129.6 C808.7,125.4 808.8,122.7 807.2,121.5 Z" id="Shape"></path>
                <path d="M975.1,169.8 C978.3,166.5 982,163.8 986.1,161.8 C989.1,160.1 992.3,159.1 995.7,158.8 C998.1,158.8 999.6,159.7 999.8,161.4 C1000.1,163.1 998.3,165.9 994.3,169.9 C991.5,172.7 987.5,177.1 982.1,183.5 C976.7,189.9 970.6,196.8 963.7,204.6 C956.8,212.4 949.4,220.6 941.6,229.2 C933.8,237.8 926.1,245.6 918.6,252.7 C911.9,259.1 904.8,264.9 897.2,270.2 C890.4,274.8 884.9,277.1 880.6,277.1 C876.5,277 872.7,275.1 870.2,271.8 C867.1,268 864.6,263.6 863,258.9 C861.2,253.9 859.9,248.7 859.1,243.5 C858.4,239.1 858,234.6 858,230.2 C858.7,221.9 861.1,213.9 865.2,206.7 C870,197.5 875.4,188.7 881.3,180.2 C887.6,171.1 894.2,161.9 901.1,152.6 C907.6,143.8 913.7,134.7 919.3,125.2 C914.7,125.2 910,125.6 905.5,126.6 L903.6,127.1 C902,129.6 896.9,136.7 888.4,148.5 C876.8,163.8 864,178.2 850.2,191.5 C843.5,198.5 836.1,204.8 828.1,210.4 C823.8,213.5 819.1,216 814.1,217.8 C810.9,218.7 809.1,218.3 808.8,216.6 C808.5,214.9 809.9,212.6 812.9,209.4 C833.8,188.5 849.8,170 861.1,153.7 C872.3,137.5 878.2,125.8 878.8,118.7 C877.1,116.9 875.5,115 874.2,112.9 C872.7,110.7 871.5,108.2 870.5,105.7 C869.6,103.2 869,100.5 868.6,97.9 C868.3,95.5 868.4,93 869.1,90.7 C870.2,87.2 872.3,84.1 875.1,81.7 C877.7,79.5 880.6,77.9 883.8,76.9 C886.6,76 889.6,75.7 892.5,76.2 C894.9,76.4 897.1,77.7 898.5,79.6 C899.7,81.5 901.2,83.6 902.9,86.1 C904.6,88.6 906.1,91.2 907.5,93.9 C908.8,96.6 909.8,99.5 910.5,102.4 C911.1,105.2 911,108.2 910,110.9 C913.2,110.4 916.3,109.6 919.4,108.6 C922.1,107.6 924.7,106.3 927,104.7 C929.7,102.8 932.3,100.7 934.8,98.5 C937.6,96.1 940.8,93 944.4,89.3 C946.5,87 949.8,86.3 952.7,87.5 C955.6,88.9 958,91.2 959.5,94 C961.4,97.2 962.6,100.7 963.2,104.4 C963.9,107.6 963.4,111 961.8,113.8 C960.2,116.3 956.9,120.8 951.9,127.4 C946.9,134 941.1,141.8 934.4,150.9 L913.5,179.6 C906.1,189.7 899.5,199.3 893.5,208.3 C888.3,216 883.6,224 879.5,232.4 C876.1,239.5 874.9,244.2 875.8,246.7 C876.4,248.5 879.6,247.9 885.2,244.8 C892.9,240.4 900.3,235.4 907.3,229.8 C916.4,223 926.7,214.4 938.3,204.1 C950.4,193.7 962.5,182.3 975.1,169.8 Z" id="Shape"></path>
                <g id="Group" transform="translate(626.000000, 345.000000)">
                    <path d="M0,23.1883519 C0,20.1946557 0.546785536,17.2009595 1.64035661,14.3607862 C2.73392768,11.5973743 4.37428429,9.0642468 6.40520199,6.9916879 C8.59234414,4.76560611 11.2481596,3.00009298 14.1383117,1.84867137 C17.4190249,0.543726872 21.012187,-0.070364654 24.6053491,0.00639678673 C27.417389,0.00639678673 30.1513167,0.390203991 32.8071322,1.1578184 C35.1504987,1.84867137 37.4157531,3.00009298 39.2904464,4.61208323 C41.1651396,6.22407349 42.5711596,8.14310951 43.5085062,10.3691913 C44.5239651,12.9790803 45.0707506,15.7424921 44.9926384,18.505904 C44.9926384,20.5784629 44.7583017,22.5742604 44.2115162,24.5700578 C43.7428429,26.335571 43.0398329,28.0243227 42.024374,29.5595515 C41.1651396,30.9412574 39.9153441,32.092679 38.5093242,32.9370549 C37.1033042,33.7046693 35.4629476,34.0884765 33.822591,34.0884765 C32.1041222,34.2419994 30.3856534,33.7046693 28.9796334,32.7067706 C27.8860623,31.7088718 27.1049401,30.4806888 26.714379,29.1757443 C25.9332568,30.173643 24.917798,31.0180189 23.6680025,31.5553489 C22.3400948,32.1694405 20.9340748,32.4764862 19.5280549,32.4764862 C18.2001471,32.4764862 16.9503516,32.1694405 15.7786683,31.7088718 C14.606985,31.1715417 13.5915262,30.4806888 12.810404,29.5595515 C12.0292818,28.6384142 11.3262718,27.563754 10.9357107,26.4123324 C10.4670374,25.1841494 10.2327007,23.9559663 10.2327007,22.6510218 C10.2327007,21.115793 10.5451496,19.5805642 11.1700474,18.1220968 C11.7949451,16.7403909 12.6541795,15.4354464 13.7477506,14.3607862 C14.8413217,13.286126 16.0911172,12.3649887 17.4971371,11.7508972 C18.9031571,11.1368057 20.4654015,10.7529985 22.0276459,10.7529985 C23.4336658,10.6762371 24.8396858,10.9832828 26.0894813,11.6741358 C27.1049401,12.2114659 27.9641746,13.0558417 28.5109601,14.0537404 L28.823409,11.2903286 L34.2131521,11.2903286 L32.6509077,25.1073879 C32.2603466,28.254607 33.0414688,29.8665972 34.9161621,29.8665972 C35.7753965,29.8665972 36.5565187,29.5595515 37.1033042,28.94546 C37.8063142,28.254607 38.431212,27.4102311 38.8217731,26.4890939 C39.2904464,25.4144337 39.6810075,24.1862506 39.9153441,23.034829 C40.1496808,21.7298845 40.3059052,20.3481786 40.3059052,19.0432341 C40.3840174,16.8171523 39.9153441,14.5910705 39.0561097,12.5185116 C38.2749875,10.7529985 37.1814164,9.14100824 35.6972843,7.91282519 C34.2131521,6.68464213 32.4946833,5.76350484 30.61999,5.22617476 C28.5890723,4.61208323 26.4019302,4.30503747 24.214788,4.30503747 C21.3246359,4.22827603 18.512596,4.84236755 15.9348928,5.91702773 C13.6696384,6.91492646 11.6387207,8.37339383 9.92025187,10.2156684 C8.35800748,11.9811815 7.10821197,13.976979 6.32708977,16.2030608 C5.54596758,18.3523811 5.15540648,20.6552244 5.15540648,23.034829 C5.15540648,25.1073879 5.46785536,27.1799468 6.17086533,29.0989828 C6.87387531,31.0180189 7.96744638,32.7067706 9.37346633,34.0884765 C10.8575985,35.6237053 12.7322918,36.7751269 14.7632095,37.5427413 C17.1846883,38.4638786 19.6842793,38.8476858 22.2619825,38.8476858 C23.3555536,38.8476858 24.4491247,38.7709244 25.4645835,38.6941629 C26.714379,38.5406401 27.9641746,38.3871172 29.2139701,38.1568328 C30.4637656,37.8497871 31.7916733,37.5427413 33.1976933,37.0821727 C34.6037132,36.621604 35.9316209,36.0842739 37.2595287,35.393421 L39.2904464,39.1547316 C37.8063142,39.922346 36.2440698,40.5364375 34.6037132,40.9970062 C33.0414688,41.4575748 31.4792244,41.9181434 29.91698,42.2251892 C28.4328479,42.532235 27.0268279,42.7625193 25.5426957,42.8392807 C24.1366758,42.9928036 22.8868803,42.9928036 21.7933092,42.9928036 C18.512596,43.0695651 15.2318828,42.532235 12.1855062,41.3808134 C9.60780299,40.4596761 7.34254863,39.0012087 5.46785536,37.0821727 C3.67127431,35.3166595 2.34336658,33.1673392 1.48413217,30.7877345 C0.546785536,28.254607 0,25.7214794 0,23.1883519 Z M14.9975461,22.1904532 C14.9194339,23.725682 15.4662194,25.1841494 16.4816783,26.335571 C17.4971371,27.4869926 18.9812693,28.1010841 20.5435137,28.0243227 C22.418207,28.0243227 24.2929002,27.2567083 25.5426957,25.8750023 C26.1675935,25.1841494 26.6362668,24.4165349 27.0268279,23.5721591 C27.417389,22.6510218 27.5736135,21.7298845 27.5736135,20.8087472 C27.6517257,19.2735184 27.1049401,17.815051 26.0894813,16.586868 C25.0740224,15.4354464 23.511778,14.7445934 21.8714214,14.8981163 C20.9340748,14.8981163 19.9967282,15.0516392 19.1374938,15.4354464 C18.2782593,15.8192536 17.5752494,16.3565837 16.9503516,17.0474366 C16.3254539,17.7382896 15.8567805,18.505904 15.5443317,19.3502799 C15.1537706,20.2714171 14.9975461,21.2693159 14.9975461,22.1904532 Z" id="Shape"></path>
                    <path d="M58.1589958,24 L62.6108787,24 C62.6108787,24.3050847 62.6108787,24.5338983 62.6108787,24.8389831 C62.6108787,25.2966102 62.6903766,25.7542373 62.7698745,26.2118644 C62.9288703,26.8220339 63.2468619,27.4322034 63.6443515,27.8898305 C64.041841,28.3474576 64.5983264,28.7288136 65.1548117,28.8813559 C65.790795,29.1101695 66.4267782,29.2627119 67.0627615,29.2627119 C67.6987448,29.2627119 68.334728,29.1864407 68.9707113,28.9576271 C69.5271967,28.8050847 70.083682,28.5 70.5606695,28.1186441 C71.0376569,27.7372881 71.3556485,27.279661 71.5941423,26.8220339 C71.832636,26.2881356 71.9916318,25.6779661 71.9916318,25.0677966 C71.9916318,24.5338983 71.9121339,24.0762712 71.6736402,23.5423729 C71.4351464,23.1610169 71.1171548,22.779661 70.7991632,22.5508475 C70.4016736,22.2457627 70.0041841,22.0169492 69.5271967,21.8644068 C69.0502092,21.6355932 68.5732218,21.4830508 68.0962343,21.3305085 C66.9832636,20.9491525 65.8702929,20.4915254 64.916318,20.1101695 C64.041841,19.7288136 63.167364,19.2711864 62.3723849,18.6610169 C60.8619247,17.5169492 59.9874477,15.7627119 60.0669456,13.9322034 C60.0669456,12.7881356 60.3054393,11.6440678 60.8619247,10.6525424 C61.3389121,9.66101695 62.0543933,8.8220339 62.9288703,8.13559322 C63.8033473,7.44915254 64.7573222,6.91525424 65.8702929,6.53389831 C66.9832636,6.15254237 68.1757322,6 69.2887029,6 C70.4811715,6 71.5941423,6.15254237 72.6276151,6.61016949 C73.58159,6.99152542 74.4560669,7.52542373 75.1715481,8.28813559 C75.8870293,9.05084746 76.3640167,9.88983051 76.6820084,10.8050847 C76.9205021,11.5677966 77,12.3305085 77,13.0932203 C77,13.3983051 77,13.779661 77,14.0847458 L72.6276151,14.0847458 C72.6276151,13.8559322 72.6276151,13.6271186 72.6276151,13.4745763 C72.6276151,12.559322 72.3891213,11.720339 71.832636,10.9576271 C71.1171548,10.1186441 70.083682,9.73728814 68.9707113,9.81355932 C68.4142259,9.81355932 67.8577406,9.88983051 67.3012552,10.0423729 C66.8242678,10.1949153 66.3472803,10.4237288 65.8702929,10.7288136 C65.4728033,11.0338983 65.1548117,11.4152542 64.916318,11.7966102 C64.6778243,12.2542373 64.5188285,12.7881356 64.5188285,13.3220339 C64.5188285,13.779661 64.5983264,14.2372881 64.8368201,14.6186441 C64.9958159,15 65.3138075,15.3050847 65.6317992,15.6101695 C65.9497908,15.9152542 66.3472803,16.1440678 66.7447699,16.2966102 C67.1422594,16.5254237 67.6192469,16.6779661 68.0962343,16.8305085 L71.2761506,18.0508475 C72.2301255,18.4322034 73.1046025,18.8898305 73.8995816,19.5 C74.6945607,20.0338983 75.3305439,20.720339 75.8075314,21.559322 C76.2845188,22.4745763 76.5230126,23.5423729 76.5230126,24.5338983 C76.5230126,25.7542373 76.2845188,26.9745763 75.7280335,28.0423729 C75.1715481,29.0338983 74.4560669,29.9491525 73.5020921,30.7118644 C72.5481172,31.4745763 71.4351464,32.0847458 70.3221757,32.3898305 C69.1297071,32.7711864 67.7782427,33 66.5062762,33 C65.2343096,33 64.041841,32.7711864 62.8493724,32.3898305 C60.7029289,31.6271186 59.0334728,29.8728814 58.3974895,27.7372881 C58.1589958,26.8983051 58,26.059322 58,25.1440678 C58.0794979,24.8389831 58.0794979,24.4576271 58.1589958,24 Z" id="Shape"></path>
                    <polygon id="Shape" points="80 32 82.8051948 6 98 6 97.6103896 9.83480826 86.7012987 9.83480826 85.9220779 17.1976401 96.8311688 17.1976401 96.3636364 21.0324484 85.4545455 21.0324484 84.6753247 28.1651917 95.5844156 28.1651917 95.1948052 32"></polygon>
                    <path d="M101.000676,20.7966102 C100.922417,12.7118644 107.652683,6.07627119 115.948128,6 C116.104646,6 116.182904,6 116.339422,6 C117.982859,6 119.626297,6.22881356 121.191475,6.76271186 C122.521876,7.22033898 123.774019,7.98305085 124.791385,8.89830508 C125.80875,9.81355932 126.59134,10.8813559 127.139152,12.1016949 C127.686964,13.3983051 128,14.6949153 128,16.0677966 L123.382724,16.0677966 C123.304465,15.2288136 123.069689,14.3135593 122.756653,13.5508475 C122.443617,12.7881356 121.895805,12.1779661 121.269734,11.5677966 C120.643662,10.9576271 119.861073,10.5762712 119.078484,10.2711864 C118.139377,9.96610169 117.122011,9.81355932 116.026387,9.81355932 C114.539467,9.81355932 113.052548,10.1186441 111.722146,10.7288136 C110.470004,11.3389831 109.29612,12.1016949 108.357013,13.1694915 C107.417906,14.1610169 106.713576,15.3050847 106.244023,16.6016949 C105.774469,17.8983051 105.461434,19.1949153 105.461434,20.5677966 C105.461434,21.7118644 105.69621,22.9322034 106.087505,24 C106.478799,25.0677966 107.026612,25.9830508 107.809201,26.8220339 C108.59179,27.5847458 109.452638,28.1949153 110.470004,28.6525424 C111.565629,29.1101695 112.739512,29.3389831 113.991655,29.3389831 C114.930762,29.3389831 115.869869,29.1864407 116.808976,28.9576271 C118.452413,28.5 119.939332,27.5084746 121.034957,26.2118644 C121.582769,25.6016949 121.974064,24.9152542 122.287099,24.1525424 L127.060893,24.1525424 C126.669599,25.4491525 125.965268,26.5932203 125.182679,27.6610169 C124.321831,28.7288136 123.304465,29.720339 122.130582,30.4830508 C120.956698,31.3220339 119.548038,31.9322034 118.139377,32.3135593 C116.652458,32.7711864 115.009021,33 113.443843,33 C111.643888,33 109.765674,32.6949153 108.122237,32.0084746 C106.635317,31.3983051 105.304916,30.4830508 104.209291,29.3389831 C103.113666,28.1949153 102.331077,26.8983051 101.783265,25.4491525 C101.313711,23.9237288 101.078935,22.3983051 101.000676,20.7966102 Z" id="Shape"></path>
                    <path d="M130,20.8726716 C130,17.0616321 131.457386,13.4030343 134.065341,10.5828651 C135.369318,9.21089085 136.980114,8.06757901 138.744318,7.22915033 C140.661932,6.39072165 142.732955,5.93339692 144.803977,6.00961771 C146.568182,5.93339692 148.409091,6.31450086 150.019886,7.00048797 C151.477273,7.61025428 152.78125,8.52490375 153.855114,9.66821559 C154.852273,10.8115274 155.696023,12.1072808 156.15625,13.5554758 C156.693182,15.0036708 157,16.6043074 157,18.1287232 C157,21.9397626 155.542614,25.6745813 152.934659,28.4185297 C151.630682,29.7905039 150.019886,30.9338158 148.255682,31.7722444 C146.338068,32.6106731 144.267045,33.0679979 142.196023,32.9917771 C140.431818,32.9917771 138.590909,32.6868939 136.980114,32.0009068 C135.522727,31.3911405 134.21875,30.476491 133.144886,29.3331792 C132.147727,28.1898673 131.303977,26.8941139 130.84375,25.4459189 C130.230114,23.9977239 130,22.4733082 130,20.8726716 Z M134.448864,20.5677884 C134.448864,21.7111003 134.602273,22.7781913 134.985795,23.8452824 C135.292614,24.8361526 135.829545,25.8270229 136.519886,26.6654516 C137.210227,27.4276595 138.053977,28.0374258 139.051136,28.4947505 C140.125,29.028296 141.352273,29.2569584 142.502841,29.1807376 C143.883523,29.1807376 145.264205,28.8758545 146.491477,28.2660881 C147.71875,27.6563218 148.792614,26.8178931 149.636364,25.8270229 C150.556818,24.8361526 151.247159,23.6928408 151.707386,22.3970874 C152.167614,21.101334 152.474432,19.7293598 152.474432,18.3573855 C152.474432,17.2140737 152.321023,16.1469827 151.9375,15.0798916 C151.630682,14.0890214 151.09375,13.0981511 150.403409,12.2597224 C149.713068,11.4212937 148.869318,10.8115274 147.872159,10.3542027 C146.798295,9.82065716 145.647727,9.5919948 144.420455,9.66821559 C143.039773,9.66821559 141.659091,9.97309874 140.431818,10.5828651 C137.977273,11.8023977 136.136364,13.9365798 135.215909,16.4518658 C134.678977,17.82384 134.448864,19.1958142 134.448864,20.5677884 Z" id="Shape"></path>
                    <polygon id="Shape" points="160 32 162.759582 6 167.43554 6 175.714286 24.4837758 177.707317 6 182 6 179.240418 32 174.56446 32 166.209059 13.5162242 164.292683 32"></polygon>
                    <path d="M186,32 L188.832787,6 L197.488525,6 C199.377049,6 201.186885,6.30678466 202.918033,6.99705015 C204.413115,7.61061947 205.75082,8.53097345 206.852459,9.60471976 C207.87541,10.6784661 208.740984,11.9056047 209.213115,13.2861357 C209.763934,14.6666667 210,16.20059 210,17.7345133 C210,19.4985251 209.606557,21.2625369 208.977049,22.9498525 C207.481967,26.4778761 204.64918,29.2389381 201.108197,30.6961652 C199.062295,31.539823 196.937705,31.9233038 194.734426,31.9233038 L186,32 Z M190.8,28.1651917 L195.04918,28.1651917 C196.544262,28.1651917 198.039344,27.8584071 199.377049,27.3215339 C200.636066,26.7846608 201.737705,26.0176991 202.603279,25.020649 C203.468852,24.100295 204.177049,23.0265487 204.64918,21.79941 C205.121311,20.6489676 205.357377,19.3451327 205.357377,18.1179941 C205.357377,17.0442478 205.2,16.0471976 204.806557,15.0501475 C204.491803,14.0530973 203.940984,13.1327434 203.232787,12.3657817 C202.52459,11.5988201 201.580328,10.9852507 200.636066,10.5250737 C199.455738,10.0648968 198.27541,9.83480826 197.016393,9.83480826 L192.767213,9.83480826 L190.8,28.1651917 Z" id="Shape"></path>
                    <path d="M226.000678,20.7966102 C225.922191,12.7118644 232.672022,6.07627119 240.99158,6 C241.148553,6 241.22704,6 241.384012,6 C243.032227,6 244.680441,6.22881356 246.250169,6.76271186 C247.584438,7.22033898 248.840221,7.98305085 249.860544,8.89830508 C250.880867,9.81355932 251.665731,10.8813559 252.13665,12.1016949 C252.686054,13.3983051 253,14.6949153 253,16.0677966 L248.447789,16.0677966 C248.369302,15.2288136 248.133843,14.3135593 247.819897,13.5508475 C247.11352,12.0254237 245.779251,10.8050847 244.131037,10.2711864 C243.1892,9.96610169 242.168876,9.81355932 241.070067,9.81355932 C239.578825,9.81355932 238.087584,10.1186441 236.753315,10.7288136 C235.497532,11.3389831 234.320236,12.1016949 233.378399,13.1694915 C231.494726,15.2288136 230.474403,17.8220339 230.474403,20.4915254 C230.474403,21.6355932 230.709862,22.8559322 231.102294,23.9237288 C231.494726,24.9915254 232.122617,25.9067797 232.828995,26.7457627 C233.613859,27.5084746 234.477209,28.1949153 235.497532,28.5762712 C236.596342,29.0338983 237.773638,29.2627119 239.02942,29.2627119 C239.971257,29.2627119 240.913094,29.1101695 241.854931,28.8813559 C242.718281,28.6525424 243.503145,28.2711864 244.209523,27.8135593 C245.622278,26.8983051 246.721088,25.6779661 247.348979,24.1525424 L252.058163,24.1525424 C251.587245,25.4491525 250.959354,26.5932203 250.17449,27.6610169 C249.311139,28.7288136 248.290816,29.720339 247.11352,30.4830508 C245.857737,31.3220339 244.523469,31.9322034 243.110713,32.3135593 C241.619472,32.7711864 239.971257,33 238.401529,33 C236.596342,33 234.712668,32.6949153 233.064454,32.0084746 C231.573212,31.3983051 230.238943,30.4830508 229.140134,29.3389831 C228.041324,28.1949153 227.25646,26.8983051 226.707055,25.4491525 C226.236137,23.9237288 226.000678,22.3983051 226.000678,20.7966102 Z" id="Shape"></path>
                    <polygon id="Shape" points="255 32 257.75 6 262.027778 6 260.881944 17.1976401 271.576389 17.1976401 272.722222 6 277 6 274.25 32 270.048611 32 271.194444 21.0324484 260.5 21.0324484 259.354167 32"></polygon>
                    <path d="M278,32 L289.769231,6 L292.769231,6 L299,32 L294.461538,32 L293.692308,28.7020649 L283.923077,28.7020649 L282.461538,32 L278,32 Z M285.615385,24.8672566 L292.846154,24.8672566 L290.461538,13.1327434 L285.615385,24.8672566 Z" id="Shape"></path>
                    <polygon id="Shape" points="302 32 304.759582 6 309.43554 6 317.714286 24.4837758 319.707317 6 324 6 321.240418 32 316.56446 32 308.209059 13.5162242 306.369338 32"></polygon>
                    <path d="M327,21.302577 C327,17.3592779 328.486957,13.5737108 331.147826,10.7345355 C334.043478,7.65876221 338.113043,5.92371062 342.33913,6.0025766 C343.982609,6.0025766 345.626087,6.23917454 347.191304,6.79123641 C348.521739,7.2644323 349.773913,8.05309212 350.791304,8.99948389 C351.808696,9.94587567 352.591304,11.0499994 353.13913,12.3118551 C353.686957,13.6525768 354,14.9932985 354,16.4128861 L349.382609,16.4128861 C349.304348,15.5453603 349.069565,14.5989686 348.756522,13.8103088 C348.443478,13.0216489 347.895652,12.3907211 347.269565,11.7597932 C346.643478,11.1288654 345.93913,10.7345355 345.156522,10.4190716 C344.217391,10.1036076 343.2,9.94587567 342.104348,9.94587567 C340.617391,9.94587567 339.130435,10.2613396 337.8,10.8922674 C335.295652,12.0752572 333.26087,14.2835046 332.321739,16.964948 C331.852174,18.3056697 331.53913,19.6463914 331.53913,21.065979 C331.53913,22.2489688 331.773913,23.5108245 332.165217,24.6149482 C332.556522,25.719072 333.104348,26.6654637 333.808696,27.5329895 C334.591304,28.3216493 335.452174,28.9525772 336.469565,29.4257731 C337.565217,29.898969 338.73913,30.1355669 339.991304,30.1355669 C340.930435,30.1355669 341.869565,29.9778349 342.808696,29.741237 C343.669565,29.5046391 344.452174,29.1103092 345.156522,28.6371133 C345.86087,28.1639174 346.486957,27.6118555 347.034783,26.9809277 C347.582609,26.3499998 347.973913,25.640206 348.286957,24.8515462 L353.06087,24.8515462 C352.669565,26.1922678 351.965217,27.3752576 351.182609,28.4793813 C350.321739,29.583505 349.304348,30.6087628 348.130435,31.3974226 C346.956522,32.2649484 345.626087,32.8958763 344.217391,33.2902062 C342.730435,33.7634021 341.086957,34 339.521739,34 C337.721739,34 335.843478,33.6845361 334.2,32.9747422 C332.713043,32.3438144 331.382609,31.3974226 330.286957,30.2144329 C329.191304,29.0314432 328.408696,27.6907215 327.86087,26.1922678 C327.313043,24.6149482 327,22.9587626 327,21.302577 Z" id="Shape"></path>
                    <polygon id="Shape" points="356 32 358.793103 6 374 6 373.612069 9.83480826 362.75 9.83480826 361.974138 17.1976401 372.758621 17.1976401 372.293103 21.0324484 361.508621 21.0324484 360.732759 28.1651917 371.594828 28.1651917 371.206897 32"></polygon>
                </g>
            </g>
        </g>
    </g>
</svg>