<?xml version="1.0" encoding="utf-8"?>
<!-- Generator: Adobe Illustrator 22.0.1, SVG Export Plug-In . SVG Version: 6.00 Build 0)  -->
<svg version="1.1" id="Layer_1" xmlns="http://www.w3.org/2000/svg" xmlns:xlink="http://www.w3.org/1999/xlink" x="0px" y="0px"
	 viewBox="0 0 1004.3 402.2" style="enable-background:new 0 0 1004.3 402.2;" xml:space="preserve">
<style type="text/css">
	.st0{fill:#FFFFFF;}
</style>
<title>Artboard 1</title>
<path class="st0" d="M191.6,87c-0.9,6.1-4.8,14.2-11.7,24.1c-6.9,9.9-15.4,21.1-25.5,33.5c8.6-2.8,16.2-5,23-6.7
	c5.3-1.4,10.7-2.4,16.1-3c6.5-0.2,13.1,0.8,19.3,3c6.2,1.9,12,4.6,17.5,8c4.6,3.1,7,6,7.4,8.7c0.3,2.7-3.3,4.4-11,5.1
	c-16,2.2-31.9,5.2-47.6,9c-19.2,4.4-39,9.7-59.6,15.9c-10.7,12-21.1,23.9-31.1,35.7c-10,11.8-18.5,22.7-25.5,32.9
	c-6.1,8.4-11.2,17.4-15.2,26.9c-3.1,7.8-2.9,13.7,0.5,17.7c4.9,5.8,12.7,8.5,23.2,8.1c12.4-0.8,24.6-3.3,36.4-7.2
	c14.8-4.7,29.1-10.6,43-17.5c15-7.4,29.3-15.2,42.8-23.5c12.5-7.6,24.6-16,36.1-25.1c8.4-6.3,16.1-13.7,22.8-21.9
	c3.4-4.6,6.4-6.4,9.2-5.3s4.5,4,5.3,8.7c0.7,6.1,0.3,12.2-1.2,18.2c-1.9,8.3-5.5,16.1-10.6,23c-4.6,6-10.2,11.2-16.6,15.2
	c-9,6.1-18.2,11.8-27.8,16.9c-10.6,5.7-22.1,11.1-34.5,16.3c-12.4,5.2-24.5,9.9-36.1,14c-11.7,4.1-22.5,7.6-32.4,10.4
	c-7.8,2.4-15.9,3.9-24.1,4.6c-8.4,0.7-16.8-0.8-24.4-4.4c-7.6-3.5-14.3-8.5-19.8-14.7c-5.6-6.3-9.7-13.8-12-21.8
	c-2.5-8.4-3-17.2-1.4-25.8c2.5-9.8,6.5-19.1,12-27.6c7.4-12.1,15.3-23.8,23.9-35c-9.8,3.4-18.8,6.9-26.9,10.4
	c-6.9,2.9-13.5,6.2-20,9.9c-4.9,2.8-8.1,3.6-9.6,2.4c-1.5-1.1-1.8-3-0.9-5.8c1.4-3.5,3.3-6.8,5.8-9.6c2.9-3.7,6.4-6.8,10.4-9.2
	c9-5.7,18.4-10.7,28-15c12.2-5.6,25.7-11.5,40.4-17.7l24.8-30.3c8.3-10.1,16-19.8,23-28.9c7.1-9.1,13.2-17.5,18.4-25.1
	c4.3-6.1,8-12.5,11.1-19.3c-27.9,8.9-54.8,18.6-80.5,29.2c-25,10.2-49.4,21.7-73.2,34.4c-7.1,3.7-10.7,3.5-11-0.5
	c-0.3-4,1.5-9.4,5.5-16.3c4.6-7.8,10.1-15.1,16.3-21.7c6-6.9,13.3-12.6,21.4-16.9c13.8-6.3,27.9-11.7,42.3-16.3
	c17.2-5.7,35.8-11.2,55.9-16.5s41-10.4,62.8-15.2c21.8-4.8,42.8-9,63.2-12.4s39.4-6.3,57-8.5C341,2.7,356,1.6,371,1.5
	c6.3-0.1,12.7,0.9,18.6,3c4.5,1.4,8.6,3.8,12,6.9c2.6,2.6,3.5,5,2.8,7.2s-3.6,3.4-8.5,3.7c-36.2,2.5-72.2,7-107.9,13.6
	c-35.8,6.5-70.9,14.7-105.2,24.5c2.6,4.2,4.8,8.6,6.7,13.1C191.4,77.7,192.1,82.4,191.6,87z"/>
<path class="st0" d="M452.8,154.7c-8.3,12.8-15.8,24.4-22.6,34.7c-6.8,10.3-12.3,19.1-16.5,26.2c-3.4,5.5-6.4,11.2-8.7,17.2
	c-1.5,4.3-1.4,6.9,0.5,7.8c1.9,0.9,6.5-0.8,13.1-6.2s14-12,22.3-19.8c8.3-7.7,16.4-15.9,24.4-24.1c8-8.2,14.4-14.9,19.3-19.8
	c3.7-3.8,7.9-7,12.4-9.6c3.1-2,6.7-3.4,10.4-3.9c2.6-0.1,3.8,0.9,3.7,3c-0.2,2.1-2.4,5.7-7.2,10.6c-6.6,6.7-14.7,15.7-24.2,27
	c-9.5,11.3-18.9,22.6-28.3,33.7c-9.4,11.2-17.9,21-25.5,29.4c-7.7,8.4-13.2,13.1-16.6,14c-4.1,1.5-8.6,1.5-12.6,0
	c-3.8-1.6-7.2-4-9.9-7.2c-2.8-3.3-4.9-7.3-6-11.5c-1.2-4.4-1.5-9-0.9-13.6c0.5-4.5,1.8-9,3.7-13.1c2.2-5.1,4.6-10.1,7.3-15.2
	c2.8-5.1,5.4-9.8,7.8-14.3c2.5-4.5,4.5-7.9,6-10.4c-2.4,3.8-5,7.4-7.8,10.8c-4,5.1-8.8,10.8-14.4,17.3s-11.9,13.2-18.6,20.2
	c-6.4,6.7-13.2,13.1-20.2,19.1c-6.1,5.2-12.5,10-19.3,14.3c-6.1,3.8-11.3,5.8-15.6,5.8c-5.2-0.1-10.2-2.2-14-5.8
	c-4.6-4-8.3-8.8-11.1-14.3c-2.9-5.7-5-11.8-6.2-18.2c-1.2-5.6-1.1-11.5,0.5-17c1.6-5.5,5.7-13,12.2-22.5s14.4-19.7,23.7-30.6
	c9.2-10.9,19.3-21.8,30.1-32.9s21.5-20.9,32-29.7c9-7.7,18.7-14.5,29-20.3c9.1-4.8,16.3-6.7,21.8-5.5c2.9,1.2,5.4,3.1,7.4,5.5
	c3,3.4,5.5,7.3,7.2,11.5c2.1,5,3.4,10.3,3.9,15.6c0.6,5.8-0.2,11.6-2.4,17c4.5,2.6,8,6.6,10.2,11.3
	C455.3,146.6,455.3,151,452.8,154.7z M427.6,114.2c-3.7-1.9-9.5-0.4-17.5,4.4c-9.5,5.9-18.4,12.7-26.7,20.2
	c-9.9,8.8-20,18.6-30.4,29.4c-9.7,10-18.8,20.5-27.4,31.5c-6.8,8.5-12.9,17.6-18.2,27.1c-4.3,8-5.2,13.4-2.8,16.1
	c2.2,2.7,7.2,1.9,15-2.5c10-6.1,19.3-13.1,27.8-21c10.7-9.5,22.3-20.7,34.7-33.7c12.4-13,24.5-26.7,36.1-41.2c3.4-6.5,6.4-13.1,9-20
	C429.3,118.9,429.4,115.4,427.6,114.2z"/>
<path class="st0" d="M530.1,236.1c-5.1,12.1-13.2,22.7-23.5,30.8c-9.2,7.5-19.9,13.1-31.3,16.3c-9.5,2.9-19.6,3.1-29.2,0.7
	c-12.8-3-20.7-15.8-17.7-28.5c0.8-4.4,2.2-8.6,4.1-12.6c1.6-3.5,3.8-6.7,6.4-9.4c2.4-2.4,4.6-3.2,6.5-2.4c1.8,0.9,3.2,2.6,3.7,4.6
	c0.6,2.1,1.4,4.5,2.4,6.9c1.2,2.9,2.8,5.5,4.8,7.8c3.1,3.3,7,5.8,11.3,7.4c7.1,3.1,14.1,2,21.2-3.2c7-5.1,12.2-12.1,15.2-20.2
	c2.2-6,2.3-12.5,0.5-18.6c-2-6.9-4.5-13.6-7.4-20.2c-3.1-6.9-6-13.6-8.7-20c-2.5-5.5-4-11.4-4.1-17.5c0.3-7.1,2.4-14,6.2-20
	c4.4-7.5,9.6-14.5,15.6-20.7c6.4-6.7,13.4-12.9,20.9-18.4c7.1-5.3,14.7-9.9,22.8-13.6c6.5-3.1,13.5-5,20.7-5.5
	c5.5-0.6,11,1.3,15,5.1c2.8,3.1,4,7.4,3.2,11.5c-0.8,5-2.4,9.8-4.8,14.3c-2.8,5.2-6.3,10.1-10.4,14.4c-3.9,4.5-8.4,8.4-13.3,11.7
	c-7,4.8-14.3,9-22.1,12.4c-8.2,3.9-16.9,6.9-25.8,8.7c1.7,5.5,4.3,10.6,7.8,15.2c3.8,5.1,7.1,10.6,9.8,16.4c3,6.4,4.9,13.2,5.5,20.2
	C536.2,217.2,534.4,226,530.1,236.1z M546.7,116c6.7-5.8,9.7-9.5,9-11c-0.8-1.5-3.4-1.2-8.1,1.2c-5.9,3.2-11.4,7.1-16.3,11.7
	c-6.5,5.8-12,12.6-16.3,20.2c-0.6,0.6-1.1,1.5-1.2,2.4c-0.1,0.8-0.3,1.6-0.7,2.4c3.4-2.4,7.8-5.7,13.4-9.9
	C532.1,128.9,538.8,123.2,546.7,116z"/>
<path class="st0" d="M594.9,61.7c-1.6-0.4-2.8-1.6-3.2-3.2c-0.3-1.7,0.2-3.4,1.2-4.8c1.2-1.8,3-3.2,5.1-3.9c2.6-0.9,5.5-0.9,8.1,0
	c7.3,1.9,14.9,3,22.4,3.5c9.5,0.8,20.1,1.3,31.7,1.6c8.7-10.7,17.9-21,27.6-30.8c7-7.3,14.9-13.8,23.5-19.3
	c3.6-1.9,7.9-2.1,11.7-0.7c4.7,1.5,8.9,4.3,12,8c3.8,4.5,6.4,9.9,7.6,15.6c1.5,7.4,1,15-1.4,22.1c13.8-1.8,27.2-4.2,40.3-7.2
	c12.1-2.7,24.1-6.3,35.6-10.8c5.8-2.1,9.4-2.4,10.8-0.5s0.9,4.8-1.4,8.7c-3,4.8-6.8,9.1-11.3,12.6c-5.5,4.6-11.7,8.3-18.4,10.8
	c-11.5,4.1-23.4,6.8-35.4,8.1c-14.7,1.7-29.4,2.7-44.2,3l-0.9,0.5c-0.6,0.3-3.8,2.8-9.4,7.6c-5.7,4.7-12.7,10.7-21.1,17.9
	s-17.6,15.2-27.4,23.9s-19.3,17.2-28.5,25.5c-6.7,11.1-12.8,21.8-18.2,32.2c-4.9,9.2-9,18.9-12.4,28.7c-2.6,7.3-4.2,15-4.8,22.8
	c-0.3,6.4,1.2,11.2,4.6,14.3c2.2,2.1,7.1,1.1,15-3c9.6-5.3,18.8-11.2,27.6-17.7c10.6-7.7,21.8-16.5,33.7-26.7
	c11.9-10.1,22.7-20.1,32.4-29.9c4.1-4.2,8.7-7.9,13.8-10.8c4.3-2.4,7.5-3.3,9.6-3c2.1,0.3,3,1.7,2.5,4.1s-2.7,5.7-6.7,9.6
	c-2.8,2.8-7.1,7.4-12.9,13.8c-5.8,6.4-12.4,13.7-19.8,21.7c-7.4,8-15.3,16.3-23.9,24.8c-8.6,8.6-16.9,16.4-24.8,23.5
	c-7.1,6.4-14.6,12.2-22.5,17.5c-7.1,4.6-12.9,6.9-17.5,6.9c-5.3-0.3-10.4-2.5-14.3-6.2c-5.4-4.8-9.6-10.7-12.4-17.3
	c-3.6-8.2-5.9-17-6.7-26c-1-10.9,0-21.9,3-32.4c2.4-9.1,5.7-18,9.9-26.5c4.8-9.9,10.4-20.5,16.9-31.7s13.5-22.6,21.4-34.3
	c7.8-11.7,15.9-22.9,24.1-33.7c-9.8-1.2-19.1-2.5-27.8-3.9C611.2,65.7,603,64,594.9,61.7z M682.3,74.2c-10.1,12.6-20,26.1-29.6,40.5
	l40-40c-1.7-0.3-3.4-0.5-5.1-0.5H682.3z M714.1,52.5c4.9-5,9.3-10.5,13.1-16.3c2-3.5,2.5-6,1.6-7.6s-4.5-0.4-9.6,4.4
	c-5.2,4.8-11.8,11.6-19.8,20.5c2.4,0,4.8,0,7.4-0.2c2.6-0.2,4.7-0.3,7.2-0.6L714.1,52.5z"/>
<path class="st0" d="M707.5,248.5c2.8,3.1,7.6,3.9,14.4,2.4c8.2-1.8,16.1-4.5,23.7-8c9.9-4.5,19.5-9.6,28.7-15.2
	c10.3-6.1,20.2-12.6,29.9-19.3c9.7-6.7,18.6-13.4,26.9-20c7.1-5.5,13.8-11.4,20.2-17.7c3.6-3.7,7.7-6.9,12.2-9.4
	c2.8-1.7,6-2.6,9.2-2.7c2.3,0.1,3.4,1.3,3.4,3.4c0,2.1-1.9,5.1-5.5,8.7c-12,12-24.8,24.2-38.5,36.8c-13.7,12.6-27.2,24.1-40.3,34.6
	c-12,9.5-24.7,18.1-38.1,25.5c-12.1,6.6-22.6,9.9-31.5,9.9c-4.9-0.1-9.7-1.1-14.3-3c-5.3-2.1-10.2-5.2-14.3-9.2
	c-4.6-4.6-8.3-10.1-10.8-16.1c-3.1-7.5-4.6-15.6-4.4-23.7c0-6.1,2.5-13.8,7.6-23c5.7-10.1,12.3-19.8,19.6-28.9
	c8.4-10.6,17.3-20.7,26.7-30.4c9.2-9.6,18.9-18.7,29.1-27.3c8.6-7.3,17.7-14,27.4-19.8c8.6-5.1,15.5-7.6,20.7-7.6
	c2.8,0.2,5.5,0.8,8.1,1.8c3.8,1.4,7.3,3.4,10.4,6c3.6,3,6.5,6.8,8.5,11c2.4,5.5,3.1,11.6,2.1,17.5c-1.3,8.1-4.5,15.8-9.2,22.6
	c-5.5,8.2-11.7,15.9-18.6,23c-6.9,7.1-14.3,13.8-22.1,20c-6,4.9-12.3,9.3-19.1,13.1c-8.9,5.2-17.4,6.8-25.5,4.8
	c-7.4-1.6-14.2-5.4-19.6-10.8c-7,9.6-12.9,20.1-17.5,31.1C703.3,237.9,703.5,244.5,707.5,248.5z M808.2,122.5
	c-2.5-1.6-6.5-0.8-12.2,2.4c-6.8,3.9-13.2,8.5-19.1,13.8c-7,6.1-14.5,13.3-22.3,21.7c-7.7,8.2-15,16.8-21.8,25.7
	c5,2.2,10.8,2.3,15.9,0.2c6.5-2.3,12.6-5.4,18.2-9.4c6.3-4.5,12.2-9.5,17.7-15c5.3-5.3,10.2-10.9,14.7-16.9
	c3.5-4.4,6.4-9.3,8.7-14.4C809.7,126.4,809.8,123.7,808.2,122.5z"/>
<path class="st0" d="M976.1,170.8c3.2-3.3,6.9-6,11-8c3-1.7,6.2-2.7,9.6-3c2.4,0,3.9,0.9,4.1,2.6c0.3,1.7-1.5,4.5-5.5,8.5
	c-2.8,2.8-6.8,7.2-12.2,13.6c-5.4,6.4-11.5,13.3-18.4,21.1c-6.9,7.8-14.3,16-22.1,24.6c-7.8,8.6-15.5,16.4-23,23.5
	c-6.7,6.4-13.8,12.2-21.4,17.5c-6.8,4.6-12.3,6.9-16.6,6.9c-4.1-0.1-7.9-2-10.4-5.3c-3.1-3.8-5.6-8.2-7.2-12.9
	c-1.8-5-3.1-10.2-3.9-15.4c-0.7-4.4-1.1-8.9-1.1-13.3c0.7-8.3,3.1-16.3,7.2-23.5c4.8-9.2,10.2-18,16.1-26.5
	c6.3-9.1,12.9-18.3,19.8-27.6c6.5-8.8,12.6-17.9,18.2-27.4c-4.6,0-9.3,0.4-13.8,1.4l-1.9,0.5c-1.6,2.5-6.7,9.6-15.2,21.4
	c-11.6,15.3-24.4,29.7-38.2,43c-6.7,7-14.1,13.3-22.1,18.9c-4.3,3.1-9,5.6-14,7.4c-3.2,0.9-5,0.5-5.3-1.2c-0.3-1.7,1.1-4,4.1-7.2
	c20.9-20.9,36.9-39.4,48.2-55.7c11.2-16.2,17.1-27.9,17.7-35c-1.7-1.8-3.3-3.7-4.6-5.8c-1.5-2.2-2.7-4.7-3.7-7.2
	c-0.9-2.5-1.5-5.2-1.9-7.8c-0.3-2.4-0.2-4.9,0.5-7.2c1.1-3.5,3.2-6.6,6-9c2.6-2.2,5.5-3.8,8.7-4.8c2.8-0.9,5.8-1.2,8.7-0.7
	c2.4,0.2,4.6,1.5,6,3.4c1.2,1.9,2.7,4,4.4,6.5c1.7,2.5,3.2,5.1,4.6,7.8c1.3,2.7,2.3,5.6,3,8.5c0.6,2.8,0.5,5.8-0.5,8.5
	c3.2-0.5,6.3-1.3,9.4-2.3c2.7-1,5.3-2.3,7.6-3.9c2.7-1.9,5.3-4,7.8-6.2c2.8-2.4,6-5.5,9.6-9.2c2.1-2.3,5.4-3,8.3-1.8
	c2.9,1.4,5.3,3.7,6.8,6.5c1.9,3.2,3.1,6.7,3.7,10.4c0.7,3.2,0.2,6.6-1.4,9.4c-1.6,2.5-4.9,7-9.9,13.6c-5,6.6-10.8,14.4-17.5,23.5
	l-20.9,28.7c-7.4,10.1-14,19.7-20,28.7c-5.2,7.7-9.9,15.7-14,24.1c-3.4,7.1-4.6,11.8-3.7,14.3c0.6,1.8,3.8,1.2,9.4-1.9
	c7.7-4.4,15.1-9.4,22.1-15c9.1-6.8,19.4-15.4,31-25.7C951.4,194.7,963.5,183.3,976.1,170.8z"/>
<path class="st0" d="M517.9,376.2c0-3.9,0.7-7.8,2.1-11.5c1.4-3.6,3.5-6.9,6.1-9.6c2.8-2.9,6.2-5.2,9.9-6.7
	c4.2-1.7,8.8-2.5,13.4-2.4c3.6,0,7.1,0.5,10.5,1.5c3,0.9,5.9,2.4,8.3,4.5c2.4,2.1,4.2,4.6,5.4,7.5c1.3,3.4,2,7,1.9,10.6
	c0,2.7-0.3,5.3-1,7.9c-0.6,2.3-1.5,4.5-2.8,6.5c-1.1,1.8-2.7,3.3-4.5,4.4c-1.8,1-3.9,1.5-6,1.5c-2.2,0.2-4.4-0.5-6.2-1.8
	c-1.4-1.3-2.4-2.9-2.9-4.6c-1,1.3-2.3,2.4-3.9,3.1c-1.7,0.8-3.5,1.2-5.3,1.2c-1.7,0-3.3-0.4-4.8-1c-1.5-0.7-2.8-1.6-3.8-2.8
	c-1-1.2-1.9-2.6-2.4-4.1c-0.6-1.6-0.9-3.2-0.9-4.9c0-2,0.4-4,1.2-5.9c0.8-1.8,1.9-3.5,3.3-4.9c1.4-1.4,3-2.6,4.8-3.4
	c1.8-0.8,3.8-1.3,5.8-1.3c1.8-0.1,3.6,0.3,5.2,1.2c1.3,0.7,2.4,1.8,3.1,3.1l0.4-3.6h6.9l-2,18c-0.5,4.1,0.5,6.2,2.9,6.2
	c1.1,0,2.1-0.4,2.8-1.2c0.9-0.9,1.7-2,2.2-3.2c0.6-1.4,1.1-3,1.4-4.5c0.3-1.7,0.5-3.5,0.5-5.2c0.1-2.9-0.5-5.8-1.6-8.5
	c-1-2.3-2.4-4.4-4.3-6c-1.9-1.6-4.1-2.8-6.5-3.5c-2.6-0.8-5.4-1.2-8.2-1.2c-3.7-0.1-7.3,0.7-10.6,2.1c-2.9,1.3-5.5,3.2-7.7,5.6
	c-2,2.3-3.6,4.9-4.6,7.8c-1,2.8-1.5,5.8-1.5,8.9c0,2.7,0.4,5.4,1.3,7.9c0.9,2.5,2.3,4.7,4.1,6.5c1.9,2,4.3,3.5,6.9,4.5
	c3.1,1.2,6.3,1.7,9.6,1.7c1.4,0,2.8-0.1,4.1-0.2c1.6-0.2,3.2-0.4,4.8-0.7c1.6-0.4,3.3-0.8,5.1-1.4c1.8-0.6,3.5-1.3,5.2-2.2l2.6,4.9
	c-1.9,1-3.9,1.8-6,2.4c-2,0.6-4,1.2-6,1.6c-1.9,0.4-3.7,0.7-5.6,0.8c-1.8,0.2-3.4,0.2-4.8,0.2c-4.2,0.1-8.4-0.6-12.3-2.1
	c-3.3-1.2-6.2-3.1-8.6-5.6c-2.3-2.3-4-5.1-5.1-8.2C518.6,382.8,517.9,379.5,517.9,376.2z M537.1,374.9c-0.1,2,0.6,3.9,1.9,5.4
	c1.3,1.5,3.2,2.3,5.2,2.2c2.4,0,4.8-1,6.4-2.8c0.8-0.9,1.4-1.9,1.9-3c0.5-1.2,0.7-2.4,0.7-3.6c0.1-2-0.6-3.9-1.9-5.5
	c-1.3-1.5-3.3-2.4-5.4-2.2c-1.2,0-2.4,0.2-3.5,0.7c-1.1,0.5-2,1.2-2.8,2.1c-0.8,0.9-1.4,1.9-1.8,3
	C537.3,372.4,537.1,373.7,537.1,374.9z"/>
<path class="st0" d="M593.8,377.1h5.6c0,0.4,0,0.7,0,1.1c0,0.6,0.1,1.2,0.2,1.8c0.2,0.8,0.6,1.6,1.1,2.2c0.5,0.6,1.2,1.1,1.9,1.3
	c0.8,0.3,1.6,0.5,2.4,0.5c0.8,0,1.6-0.1,2.4-0.4c0.7-0.2,1.4-0.6,2-1.1c0.6-0.5,1-1.1,1.3-1.7c0.3-0.7,0.5-1.5,0.5-2.3
	c0-0.7-0.1-1.3-0.4-2c-0.3-0.5-0.7-1-1.1-1.3c-0.5-0.4-1-0.7-1.6-0.9c-0.6-0.3-1.2-0.5-1.8-0.7c-1.4-0.5-2.8-1.1-4-1.6
	c-1.1-0.5-2.2-1.1-3.2-1.9c-1.9-1.5-3-3.8-2.9-6.2c0-1.5,0.3-3,1-4.3c0.6-1.3,1.5-2.4,2.6-3.3c1.1-0.9,2.3-1.6,3.7-2.1
	c1.4-0.5,2.9-0.7,4.3-0.7c1.5,0,2.9,0.2,4.2,0.8c1.2,0.5,2.3,1.2,3.2,2.2c0.9,1,1.5,2.1,1.9,3.3c0.3,1,0.4,2,0.4,3
	c0,0.4,0,0.9,0,1.3H612c0-0.3,0-0.6,0-0.8c0-1.2-0.3-2.3-1-3.3c-0.9-1.1-2.2-1.6-3.6-1.5c-0.7,0-1.4,0.1-2.1,0.3
	c-0.6,0.2-1.2,0.5-1.8,0.9c-0.5,0.4-0.9,0.9-1.2,1.4c-0.3,0.6-0.5,1.3-0.5,2c0,0.6,0.1,1.2,0.4,1.7c0.2,0.5,0.6,0.9,1,1.3
	c0.4,0.4,0.9,0.7,1.4,0.9c0.5,0.3,1.1,0.5,1.7,0.7l4,1.6c1.2,0.5,2.3,1.1,3.3,1.9c1,0.7,1.8,1.6,2.4,2.7c0.6,1.2,0.9,2.6,0.9,3.9
	c0,1.6-0.3,3.2-1,4.6c-0.7,1.3-1.6,2.5-2.8,3.5c-1.2,1-2.6,1.8-4,2.2c-1.5,0.5-3.2,0.8-4.8,0.8c-1.6,0-3.1-0.3-4.6-0.8
	c-2.7-1-4.8-3.3-5.6-6.1c-0.3-1.1-0.5-2.2-0.5-3.4C593.7,378.2,593.7,377.7,593.8,377.1z"/>
<path class="st0" d="M621.9,388.2l3.6-33.9H645l-0.5,5h-14l-1,9.6h14l-0.6,5h-14l-1,9.3h14l-0.5,5L621.9,388.2z"/>
<path class="st0" d="M648.5,372.9c-0.1-10.6,8.5-19.3,19.1-19.4c0.2,0,0.3,0,0.5,0c2.1,0,4.2,0.3,6.2,1c1.7,0.6,3.3,1.6,4.6,2.8
	c1.3,1.2,2.3,2.6,3,4.2c0.7,1.7,1.1,3.4,1.1,5.2h-5.9c-0.1-1.1-0.4-2.3-0.8-3.3c-0.4-1-1.1-1.8-1.9-2.6c-0.8-0.8-1.8-1.3-2.8-1.7
	c-1.2-0.4-2.5-0.6-3.9-0.6c-1.9,0-3.8,0.4-5.5,1.2c-1.6,0.8-3.1,1.8-4.3,3.2c-1.2,1.3-2.1,2.8-2.7,4.5c-0.6,1.7-1,3.4-1,5.2
	c0,1.5,0.3,3.1,0.8,4.5c0.5,1.4,1.2,2.6,2.2,3.7c1,1,2.1,1.8,3.4,2.4c1.4,0.6,2.9,0.9,4.5,0.9c1.2,0,2.4-0.2,3.6-0.5
	c2.1-0.6,4-1.9,5.4-3.6c0.7-0.8,1.2-1.7,1.6-2.7h6.1c-0.5,1.7-1.4,3.2-2.4,4.6c-1.1,1.4-2.4,2.7-3.9,3.7c-1.5,1.1-3.3,1.9-5.1,2.4
	c-1.9,0.6-4,0.9-6,0.9c-2.3,0-4.7-0.4-6.8-1.3c-1.9-0.8-3.6-2-5-3.5c-1.4-1.5-2.4-3.2-3.1-5.1C648.9,377,648.6,375,648.5,372.9z"/>
<path class="st0" d="M686.4,373c0-5,1.9-9.8,5.3-13.5c1.7-1.8,3.8-3.3,6.1-4.4c2.5-1.1,5.2-1.7,7.9-1.6c2.3-0.1,4.7,0.4,6.8,1.3
	c1.9,0.8,3.6,2,5,3.5c1.3,1.5,2.4,3.2,3,5.1c0.7,1.9,1.1,4,1.1,6c0,5-1.9,9.9-5.3,13.5c-1.7,1.8-3.8,3.3-6.1,4.4
	c-2.5,1.1-5.2,1.7-7.9,1.6c-2.3,0-4.7-0.4-6.8-1.3c-1.9-0.8-3.6-2-5-3.5c-1.3-1.5-2.4-3.2-3-5.1C686.7,377.1,686.4,375.1,686.4,373z
	 M692.2,372.6c0,1.5,0.2,2.9,0.7,4.3c0.4,1.3,1.1,2.6,2,3.7c0.9,1,2,1.8,3.3,2.4c1.4,0.7,3,1,4.5,0.9c1.8,0,3.6-0.4,5.2-1.2
	c1.6-0.8,3-1.9,4.1-3.2c1.2-1.3,2.1-2.8,2.7-4.5c0.6-1.7,1-3.5,1-5.3c0-1.5-0.2-2.9-0.7-4.3c-0.4-1.3-1.1-2.6-2-3.7
	c-0.9-1.1-2-1.9-3.3-2.5c-1.4-0.7-2.9-1-4.5-0.9c-1.8,0-3.6,0.4-5.2,1.2c-3.2,1.6-5.6,4.4-6.8,7.7
	C692.5,369,692.2,370.8,692.2,372.6L692.2,372.6z"/>
<path class="st0" d="M725.3,388.2l3.6-33.9h6.1l10.8,24.1l2.6-24.1h5.6l-3.6,33.9h-6.1l-10.9-24.1l-2.5,24.1L725.3,388.2z"/>
<path class="st0" d="M757.7,388.2l3.6-33.9h11c2.4,0,4.7,0.4,6.9,1.3c1.9,0.8,3.6,2,5,3.4c1.3,1.4,2.4,3,3,4.8c0.7,1.8,1,3.8,1,5.8
	c0,2.3-0.5,4.6-1.3,6.8c-1.9,4.6-5.5,8.2-10,10.1c-2.6,1.1-5.3,1.6-8.1,1.6L757.7,388.2z M763.8,383.2h5.4c1.9,0,3.8-0.4,5.5-1.1
	c1.6-0.7,3-1.7,4.1-3c1.1-1.2,2-2.6,2.6-4.2c0.6-1.5,0.9-3.2,0.9-4.8c0-1.4-0.2-2.7-0.7-4c-0.4-1.3-1.1-2.5-2-3.5
	c-0.9-1-2.1-1.8-3.3-2.4c-1.5-0.6-3-0.9-4.6-0.9h-5.4L763.8,383.2z"/>
<path class="st0" d="M809.6,372.9c-0.1-10.6,8.5-19.3,19.1-19.4c0.2,0,0.3,0,0.5,0c2.1,0,4.2,0.3,6.2,1c1.7,0.6,3.3,1.6,4.6,2.8
	c1.3,1.2,2.3,2.6,2.9,4.2c0.7,1.7,1.1,3.4,1.1,5.2h-5.8c-0.1-1.1-0.4-2.3-0.8-3.3c-0.9-2-2.6-3.6-4.7-4.3c-1.2-0.4-2.5-0.6-3.9-0.6
	c-1.9,0-3.8,0.4-5.5,1.2c-1.6,0.8-3.1,1.8-4.3,3.2c-2.4,2.7-3.7,6.1-3.7,9.6c0,1.5,0.3,3.1,0.8,4.5c0.5,1.4,1.3,2.6,2.2,3.7
	c1,1,2.1,1.9,3.4,2.4c1.4,0.6,2.9,0.9,4.5,0.9c1.2,0,2.4-0.2,3.6-0.5c1.1-0.3,2.1-0.8,3-1.4c1.8-1.2,3.2-2.8,4-4.8h6
	c-0.6,1.7-1.4,3.2-2.4,4.6c-1.1,1.4-2.4,2.7-3.9,3.7c-1.6,1.1-3.3,1.9-5.1,2.4c-1.9,0.6-4,0.9-6,0.9c-2.3,0-4.7-0.4-6.8-1.3
	c-1.9-0.8-3.6-2-5-3.5c-1.4-1.5-2.4-3.2-3.1-5.1C809.9,377,809.6,375,809.6,372.9z"/>
<path class="st0" d="M847.3,388.2l3.6-33.9h5.6l-1.5,14.6h14l1.5-14.6h5.6l-3.6,33.9H867l1.5-14.3h-14l-1.5,14.3L847.3,388.2z"/>
<path class="st0" d="M876.4,388.2l15.3-33.9h3.9l8.1,33.9h-5.9l-1-4.3h-12.7l-1.9,4.3L876.4,388.2z M886.3,378.9h9.4l-3.1-15.3
	L886.3,378.9z"/>
<path class="st0" d="M907.7,388.2l3.6-33.9h6.1l10.8,24.1l2.6-24.1h5.6l-3.6,33.9h-6.1l-10.9-24.1l-2.4,24.1L907.7,388.2z"/>
<path class="st0" d="M940.1,372.9c0-5,1.9-9.8,5.3-13.4c3.7-3.9,8.9-6.1,14.3-6c2.1,0,4.2,0.3,6.2,1c1.7,0.6,3.3,1.6,4.6,2.8
	c1.3,1.2,2.3,2.6,3,4.2c0.7,1.7,1.1,3.4,1.1,5.2h-5.9c-0.1-1.1-0.4-2.3-0.8-3.3c-0.4-1-1.1-1.8-1.9-2.6c-0.8-0.8-1.7-1.3-2.7-1.7
	c-1.2-0.4-2.5-0.6-3.9-0.6c-1.9,0-3.8,0.4-5.5,1.2c-3.2,1.5-5.8,4.3-7,7.7c-0.6,1.7-1,3.4-1,5.2c0,1.5,0.3,3.1,0.8,4.5
	c0.5,1.4,1.2,2.6,2.1,3.7c1,1,2.1,1.8,3.4,2.4c1.4,0.6,2.9,0.9,4.5,0.9c1.2,0,2.4-0.2,3.6-0.5c1.1-0.3,2.1-0.8,3-1.4
	c0.9-0.6,1.7-1.3,2.4-2.1c0.7-0.8,1.2-1.7,1.6-2.7h6.1c-0.5,1.7-1.4,3.2-2.4,4.6c-1.1,1.4-2.4,2.7-3.9,3.7c-1.5,1.1-3.2,1.9-5,2.4
	c-1.9,0.6-4,0.9-6,0.9c-2.3,0-4.7-0.4-6.8-1.3c-1.9-0.8-3.6-2-5-3.5c-1.4-1.5-2.4-3.2-3.1-5.1C940.5,377.1,940.1,375,940.1,372.9z"
	/>
<path class="st0" d="M977.9,388.2l3.6-33.9h19.6l-0.5,5h-14l-1,9.6h13.9l-0.6,5h-13.9l-1,9.3h14l-0.5,5L977.9,388.2z"/>
</svg>
